HIERARCHY
ROOT Hips
{
	OFFSET 0.000000 0.000000 0.000000
	CHANNELS 6 Xposition Yposition Zposition Zrotation Yrotation Xrotation 
	JOINT LHipJoint
	{
		OFFSET 0.000000 0.000000 0.000000
		CHANNELS 3 Zrotation Yrotation Xrotation
		JOINT LeftUpLeg
		{
			OFFSET 1.363060 -1.794630 0.839290
			CHANNELS 3 Zrotation Yrotation Xrotation
			JOINT LeftLeg
			{
				OFFSET 2.448110 -6.726130 0.000000
				CHANNELS 3 Zrotation Yrotation Xrotation
				JOINT LeftFoot
				{
					OFFSET 2.562200 -7.039590 0.000000
					CHANNELS 3 Zrotation Yrotation Xrotation
					JOINT LeftToeBase
					{
						OFFSET 0.157640 -0.433110 2.322550
						CHANNELS 3 Zrotation Yrotation Xrotation
						End Site
						{
							OFFSET 0.000000 0.000000 0.000000
						}
					}
				}
			}
		}
	}
	JOINT RHipJoint
	{
		OFFSET 0.000000 0.000000 0.000000
		CHANNELS 3 Zrotation Yrotation Xrotation
		JOINT RightUpLeg
		{
			OFFSET -1.305520 -1.794630 0.839290
			CHANNELS 3 Zrotation Yrotation Xrotation
			JOINT RightLeg
			{
				OFFSET -2.542530 -6.985550 0.000000
				CHANNELS 3 Zrotation Yrotation Xrotation
				JOINT RightFoot
				{
					OFFSET -2.568260 -7.056230 0.000000
					CHANNELS 3 Zrotation Yrotation Xrotation
					JOINT RightToeBase
					{
						OFFSET -0.164730 -0.452590 2.363150
						CHANNELS 3 Zrotation Yrotation Xrotation
						End Site
						{
							OFFSET 0.000000 0.000000 0.000000
						}
					}
				}
			}
		}
	}
	JOINT LowerBack
	{
		OFFSET 0.000000 0.000000 0.000000
		CHANNELS 3 Zrotation Yrotation Xrotation
		JOINT Spine
		{
			OFFSET 0.028270 2.035590 -0.193380
			CHANNELS 3 Zrotation Yrotation Xrotation
			JOINT Spine1
			{
				OFFSET 0.056720 2.048850 -0.042750
				CHANNELS 3 Zrotation Yrotation Xrotation
				JOINT Neck
				{
					OFFSET 0.000000 0.000000 0.000000
					CHANNELS 3 Zrotation Yrotation Xrotation
					JOINT Neck1
					{
						OFFSET -0.054170 1.746240 0.172020
						CHANNELS 3 Zrotation Yrotation Xrotation
						JOINT Head
						{
							OFFSET 0.104070 1.761360 -0.123970
							CHANNELS 3 Zrotation Yrotation Xrotation
							End Site
							{
								OFFSET 0.000000 0.000000 0.000000
							}
						}
					}
				}
				JOINT LeftShoulder
				{
					OFFSET 0.000000 0.000000 0.000000
					CHANNELS 3 Zrotation Yrotation Xrotation
					JOINT LeftArm
					{
						OFFSET 3.362410 1.200890 -0.311210
						CHANNELS 3 Zrotation Yrotation Xrotation
						JOINT LeftForeArm
						{
							OFFSET 4.983000 -0.000000 -0.000000
							CHANNELS 3 Zrotation Yrotation Xrotation
							JOINT LeftHand
							{
								OFFSET 3.483560 -0.000000 -0.000000
								CHANNELS 3 Zrotation Yrotation Xrotation
								JOINT LeftFingerBase
								{
									OFFSET 0.000000 0.000000 0.000000
									CHANNELS 3 Zrotation Yrotation Xrotation
									JOINT LeftHandIndex1
									{
										OFFSET 0.715260 -0.000000 -0.000000
										CHANNELS 3 Zrotation Yrotation Xrotation
										End Site
										{
											OFFSET 0.000000 0.000000 0.000000
										}
									}
								}
								JOINT LThumb
								{
									OFFSET 0.000000 0.000000 0.000000
									CHANNELS 3 Zrotation Yrotation Xrotation
									End Site
									{
										OFFSET 0.000000 0.000000 0.000000
									}
								}
							}
						}
					}
				}
				JOINT RightShoulder
				{
					OFFSET 0.000000 0.000000 0.000000
					CHANNELS 3 Zrotation Yrotation Xrotation
					JOINT RightArm
					{
						OFFSET -3.136600 1.374050 -0.404650
						CHANNELS 3 Zrotation Yrotation Xrotation
						JOINT RightForeArm
						{
							OFFSET -5.241900 -0.000000 -0.000000
							CHANNELS 3 Zrotation Yrotation Xrotation
							JOINT RightHand
							{
								OFFSET -3.444170 -0.000000 -0.000000
								CHANNELS 3 Zrotation Yrotation Xrotation
								JOINT RightFingerBase
								{
									OFFSET 0.000000 0.000000 0.000000
									CHANNELS 3 Zrotation Yrotation Xrotation
									JOINT RightHandIndex1
									{
										OFFSET -0.622530 -0.000000 -0.000000
										CHANNELS 3 Zrotation Yrotation Xrotation
										End Site
										{
											OFFSET 0.000000 0.000000 0.000000
										}
									}
								}
								JOINT RThumb
								{
									OFFSET 0.000000 0.000000 0.000000
									CHANNELS 3 Zrotation Yrotation Xrotation
									End Site
									{
										OFFSET 0.000000 0.000000 0.000000
									}
								}
							}
						}
					}
				}
			}
		}
	}
}
MOTION
Frames: 7
Frame Time: 0.008333
7.650311 20.111971 -24.182601 -2.356835 -1.322012 -20.161035 48.234328 6.980078 0.016060 -84.879922 -7.412741 21.775367 15.873942 4.706113 39.519099 -7.884422 -31.646380 -56.569246 0.913300 6.089400 17.044100 -49.556432 -7.230285 -16.923615 87.118834 -19.733501 32.788477 -16.876521 -6.426738 12.417075 -6.699674 2.834284 -69.125860 -0.206600 2.926200 -8.073400 3.494901 -4.186534 -11.718272 6.710889 -7.078556 86.749685 -9.812869 -1.491250 -22.359241 -10.817907 -7.086849 -19.336249 12.463915 -8.181940 -21.507784 2.465700 -6.366600 2.067900 15.553156 -0.719357 -0.355850 -105.657229 -2.746071 24.028121 46.687851 -54.282720 -5.418878 1.426045 1.841141 -6.738817 14.540224 -10.765499 -2.867000 -7.125000 0.000000 0.000000 -9.942900 17.154700 6.669700 -18.575599 -5.425832 -0.751403 111.536423 0.733668 10.341725 -42.418014 46.532059 -6.119589 -5.112163 -15.761891 14.036646 -8.457413 -53.219681 5.076500 7.125000 0.000000 0.000000 31.768500 -64.012100 -15.387500 
7.651671 20.108821 -24.184892 -2.684621 -1.554084 -19.948056 48.545407 7.091913 -0.053223 -84.873370 -7.284203 21.711717 15.911052 4.656125 39.302345 -7.754760 -31.560662 -56.785570 0.831900 5.818600 16.258900 -49.451825 -7.187198 -16.783414 87.271996 -19.523935 32.685941 -16.955807 -6.351336 12.254747 -6.626628 3.036294 -69.007612 -0.184300 2.765200 -7.625800 2.804261 -4.252301 -11.817793 8.295085 -7.966983 86.128386 -10.062355 -1.569104 -21.657254 -10.435647 -6.408891 -16.954997 9.954061 -7.397626 -26.528846 2.510800 -6.158100 1.539000 15.059408 -1.023273 -0.539157 -105.716490 -2.613108 24.203423 46.880275 -54.009604 -5.318994 1.255111 1.814900 -6.576487 13.862993 -10.751500 -2.743800 -7.125000 0.000000 0.000000 -10.288700 17.227100 6.892800 -19.036005 -5.337876 -0.812660 111.190421 0.579261 11.157343 -42.716391 46.196327 -6.071970 -4.138436 -15.677761 12.586853 -6.718826 -50.775445 4.112700 7.125000 0.000000 0.000000 30.698000 -61.941400 -13.329400 
7.652888 20.105600 -24.188185 -2.746817 -1.823639 -19.675165 48.615757 7.217629 -0.199920 -84.887389 -7.007471 21.708126 15.965913 4.600005 38.878554 -7.528654 -31.359069 -57.096969 0.867300 5.938000 16.604800 -49.699949 -7.222240 -16.550724 87.715753 -18.959553 32.456003 -17.113188 -6.294164 12.377117 -6.647966 3.061854 -69.055629 -0.201900 2.893000 -7.980900 3.231719 -4.064441 -11.836477 7.827909 -7.567794 86.173430 -9.705047 -1.348154 -21.328968 -9.339241 -6.212681 -17.300322 7.459637 -7.509250 -28.213122 2.303400 -6.033400 1.409500 14.884765 -0.768968 -0.623882 -105.410493 -2.888585 24.859785 46.958314 -54.055388 -5.303624 1.091391 1.776313 -6.673213 13.226526 -10.857916 -2.649200 -7.125000 0.000000 0.000000 -10.613100 17.193700 7.125600 -19.163613 -5.365761 -0.814079 110.955677 0.765448 11.788244 -42.782976 46.358153 -5.974507 -3.079028 -15.479674 11.139292 -4.781005 -48.125073 3.129000 7.125000 0.000000 0.000000 29.961600 -59.751500 -11.405200 
7.654105 20.100803 -24.188185 -3.051134 -2.286058 -19.684354 48.747612 7.318865 -0.708736 -84.698332 -6.113599 22.139214 15.980360 4.543166 38.178975 -7.400106 -31.307307 -57.380646 0.796900 5.698000 15.910600 -49.652598 -7.126326 -16.290633 87.990032 -18.539866 32.297561 -17.216378 -6.292325 12.610121 -6.679772 3.031112 -69.021466 -0.253300 3.238100 -8.942300 2.980331 -4.026968 -11.635575 8.667944 -8.029604 86.143459 -10.242106 -1.422533 -21.561854 -9.909172 -6.458448 -17.457907 8.882656 -7.561602 -26.753640 2.386500 -6.117400 1.537200 14.852654 -0.855869 -0.561270 -105.228349 -2.569297 25.187490 47.380082 -54.155541 -5.246229 0.774180 1.660929 -6.407630 11.993729 -11.161340 -2.480700 -7.125000 0.000000 0.000000 -11.225600 17.057900 7.586900 -19.368837 -5.271153 -0.677885 110.896241 0.517112 12.332512 -43.006070 46.284598 -5.809648 -1.736096 -15.068504 9.843826 -2.125078 -44.597681 1.973400 7.125000 0.000000 0.000000 29.379800 -56.939400 -9.133400 
7.654749 20.097081 -24.190261 -3.248840 -2.692703 -19.622030 48.829507 7.430796 -1.058970 -84.557637 -5.445945 22.397225 15.996863 4.498182 37.625563 -7.269244 -31.232755 -57.634628 0.735300 5.478200 15.277700 -49.700396 -7.107109 -16.048930 88.251091 -18.096046 32.138295 -17.323451 -6.276928 12.893387 -6.663150 3.136238 -68.968932 -0.279500 3.400200 -9.394900 2.991229 -3.922738 -11.492343 8.940191 -8.113378 86.114977 -10.412771 -1.368583 -21.536442 -9.894823 -6.474047 -17.437083 8.951978 -7.505683 -26.926305 2.391000 -6.105100 1.515700 14.777241 -0.832641 -0.568339 -104.986228 -2.464976 25.587975 47.701059 -54.250812 -5.240032 0.546255 1.618638 -6.308372 11.124532 -11.231812 -2.340200 -7.125000 0.000000 0.000000 -11.660500 17.064200 7.891800 -19.511768 -5.208448 -0.630830 110.794644 0.458140 12.865747 -43.184204 46.233834 -5.591521 -0.460821 -14.563310 8.713324 0.377028 -41.282931 1.038900 7.125000 0.000000 0.000000 29.129000 -54.395500 -7.186200 
7.654892 20.093573 -24.193411 -3.419695 -3.159739 -19.594546 48.875994 7.558181 -1.402762 -84.387799 -4.731584 22.674233 15.996111 4.470346 37.083562 -7.148583 -31.164432 -57.874767 0.664700 5.214200 14.520600 -49.762896 -7.149029 -15.763538 88.500040 -17.576841 31.958364 -17.435484 -6.284429 13.406589 -6.624750 3.308236 -68.900195 -0.311300 3.586700 -9.916800 3.068243 -3.791378 -11.321136 9.025543 -8.078956 86.159800 -10.570254 -1.287755 -21.581084 -10.023584 -6.540884 -17.559256 9.548737 -7.430699 -26.637183 2.421300 -6.105500 1.540700 14.768365 -0.780721 -0.558052 -104.718263 -2.348270 25.952761 48.042842 -54.394619 -5.267518 0.353894 1.591163 -6.238490 10.395251 -11.268468 -2.220000 -7.125000 0.000000 0.000000 -12.025300 17.081300 8.145300 -19.593135 -5.139750 -0.592119 110.743092 0.435793 13.275446 -43.317837 46.180480 -5.353550 0.662382 -14.013299 7.851492 2.618115 -38.310789 0.323700 7.125000 0.000000 0.000000 29.076500 -52.195700 -5.535000 
7.654677 20.090709 -24.197778 -3.578706 -3.639583 -19.578447 48.927364 7.701383 -1.664435 -84.232555 -4.104224 22.902071 15.972705 4.469152 36.644311 -7.044554 -31.106042 -58.077431 0.606900 4.986600 13.870400 -49.809230 -7.270679 -15.447694 88.705459 -17.010674 31.761665 -17.554268 -6.313270 14.130178 -6.561343 3.536977 -68.813343 -0.349500 3.798300 -10.509900 3.051432 -3.675295 -11.115563 9.163787 -8.086369 86.194181 -10.748239 -1.219968 -21.683678 -10.287510 -6.600852 -17.620661 10.397520 -7.306160 -26.230084 2.480000 -6.098900 1.570000 14.769073 -0.737676 -0.541742 -104.478756 -2.181269 26.231682 48.379839 -54.546095 -5.324072 0.224414 1.579109 -6.179787 9.912003 -11.273427 -2.138800 -7.125000 0.000000 0.000000 -12.266100 17.104000 8.309900 -19.660226 -5.060909 -0.563269 110.708598 0.423821 13.560094 -43.404650 46.096281 -5.148199 1.480467 -13.542015 7.289296 4.265619 -36.067607 -0.131200 7.125000 0.000000 0.000000 29.091200 -50.584200 -4.321100 
